<svg version="1.1" id="Layer_1" xmlns="http://www.w3.org/2000/svg" viewBox="0 0 480 400">
<style type="text/css">
	.st0{fill:#003399;}
	.st1{fill:#FFFFFF;}
</style>
<g>
	<g>
		<g>
			<g>
				<g>
					<path class="st0" d="M187.2,122c-0.1-9.3,1.5-17.5,4.3-25.5c2.3-6.5,5.3-12.6,8.9-18.5c3.9-6.4,8.3-12.4,13.1-18.1
						c0.7-0.8,1.2-0.9,2.1-0.2c4.5,3.4,8.3,7.5,11.6,12c3.6,5,6.5,10.5,9,16.1c0.2,0.5,0.3,0.9-0.1,1.4c-2.6,3.5-5,7.1-7.1,10.9
						c-1.7,3-3.1,6.1-4.3,9.3c-3,7.8-4.4,16-4.1,24.4c0.3,7.6,1.9,14.9,4.5,22.1c1.5,4,3.2,7.8,5.1,11.6c1.4,2.7,2.9,5.4,4.6,7.9
						c0.2,0.3,0.4,0.5,0.3,0.8c-0.2,0.4-0.6,0.3-0.9,0.3c-5.4-0.3-10.8-1.2-16.1-2.6c-3.4-0.9-6.7-1.9-9.9-3.2
						c-1.3-0.5-2.7-1.1-4-1.7c-0.6-0.2-0.7-0.8-1-1.3c-4.8-6.9-8.8-14.2-11.7-22.1c-1.8-5-3.2-10.2-3.8-15.6
						C187.5,127.1,187.1,124.1,187.2,122z"/>
					<path class="st0" d="M249.5,86.3c-2,0-4,0-6,0c-0.9,0-1.5-0.4-1.9-1.3c-2.1-4.9-4.5-9.6-7.4-14c-3.3-5-7.1-9.6-11.6-13.6
						c-4.8-4.2-10.1-7.5-15.9-10c-7.2-3.1-14.6-4.7-22.3-5.4c-4.6-0.4-9.2-0.5-13.8-0.4c-0.8,0-1.6,0.1-2.5,0.2
						c-0.4,0-0.8,0.1-1.1-0.2c-0.3-0.4,0.1-0.8,0.3-1.1c1.4-2,2.9-4.1,4.4-6c4.5-5.6,9.5-10.5,15.1-14.8c0.2-0.2,0.5-0.3,0.6-0.5
						c2.4-2.6,5.5-2.6,8.7-2.4c3.2,0.2,6.4,0.4,9.6,0.6c6.5,0.5,12.8,1.9,18.9,3.8c3.8,1.2,7.6,2.8,11.1,4.6c4.3,2.2,8.3,4.8,12,7.8
						c4.8,3.9,9.1,8.3,12.8,13.2c3.5,4.5,6.5,9.3,9.1,14.3c3.3,6.2,6.1,12.7,8.5,19.3c0.3,0.8,0.1,1.1-0.6,1.4
						c-6.6,2.4-13.3,3.9-20.3,4.4C254.6,86.3,252,86.3,249.5,86.3z"/>
					<path class="st0" d="M249.7,126.5c-6.6,0.3-13.6-0.6-20.7-1.2c-1.8-0.1-1.9-0.3-1.6-2.2c0.7-4.5,2-8.8,3.7-13.1
						c2.1-5.2,5-10,8.1-14.6c0.1-0.1,0.1-0.2,0.2-0.3c2.3-3,2.3-3,6.4-2.6c4.9,0.4,9.7,0,14.5-0.4c5-0.4,9.9-1.5,14.7-2.9
						c4.2-1.3,8.2-2.9,12-4.9c4.9-2.5,9.3-5.7,13.3-9.3c3.4-3,6.4-6.4,9.1-10.1c3.2-4.4,6-9.1,8.3-14.1c0.1-0.3,0.2-0.7,0.6-0.6
						c0.3,0,0.4,0.4,0.5,0.6c2.3,4.7,4.2,9.6,5.6,14.7c1.5,5.4,2.5,10.8,3,16.4c0.1,1-0.1,1.9-0.6,2.9c-2.5,4.5-5,9-8.2,13.1
						c-4.5,5.9-9.8,11-15.9,15.1c-5.7,3.9-11.9,6.8-18.4,8.9c-6.8,2.2-13.7,3.5-20.8,4.2C259,126.3,254.6,126.5,249.7,126.5z"/>
					<path class="st0" d="M226.6,134.1c0.1-3.3-0.4-3,2.8-2.7c7.3,0.7,14.6,1.3,21.9,1.3c5.8-0.1,11.6-0.5,17.3-1.2
						c6.3-0.8,12.5-2.2,18.5-4.2c6.5-2.2,12.6-5.1,18.4-8.9c6.8-4.5,12.5-10,17.5-16.3c1.2-1.5,2.4-3.1,3.4-4.8
						c0.2-0.3,0.3-0.8,0.7-0.6c0.3,0.2,0.1,0.6,0.1,0.9c-0.6,7.8-2.5,15.3-5.2,22.7c-1.7,4.6-3.8,9-6.3,13.2
						c-1.1,1.9-2.3,3.6-3.5,5.4c-0.3,0.4-0.6,0.9-1.2,0.5c-0.5-0.3-0.9,0.2-1.3,0.4c-2.3,1.5-4.5,3.1-6.9,4.5
						c-7.7,4.7-15.9,8.4-24.5,11.1c-6.4,1.9-12.9,3.3-19.5,3.9c-5.4,0.5-10.8,0.8-16.3,0.4c-2.8-0.2-5.6-0.3-8.4-0.5
						c-0.8-0.1-1.3-0.4-1.6-1.1c-0.5-1.3-1.1-2.6-1.6-3.9c-1.7-4.7-3.1-9.5-3.7-14.5C227,137.6,226.7,135.7,226.6,134.1z"/>
					<path class="st0" d="M192.1,162.4c-1.8-1.3-3.4-2.4-5-3.6c-5.1-3.9-9.7-8.3-13.8-13.1c-4.1-4.9-7.7-10.1-10.6-15.7
						c-0.9-1.7-1.7-3.4-2.5-5c-0.2-0.5-0.6-1.1,0.1-1.5c0.4-0.2,0.2-0.6,0.2-1c-0.2-4.3-0.5-8.5-0.5-12.8c0.1-6.5,0.7-13,2-19.5
						c1.5-7.5,3.8-14.7,7-21.6c3.3-7,7.4-13.6,12.2-19.7c0.5-0.6,1-0.8,1.7-0.7c8.5,0.5,16.6,2.6,24.2,6.3c0.2,0.1,0.5,0.3,0.7,0.4
						c1.2,0.7,1.2,0.8,0.3,1.9c-2.9,3.4-5.5,6.9-8.1,10.5c-3.3,4.7-6.3,9.6-9,14.7c-1.8,3.4-3.3,7-4.7,10.6c-1.7,4.5-3,9.1-4,13.7
						c-0.8,3.7-1.1,7.4-1.3,11.2c-0.6,9.7,1,19.2,4,28.4c1.7,5.2,4,10.3,6.6,15.1C192,161.3,192.3,161.6,192.1,162.4z"/>
					<path class="st0" d="M305.7,59.4c-0.2,0.3-0.3,0.6-0.5,0.9c-5.3,7.4-11.9,13.6-19.9,18c-0.7,0.4-1.1,0.4-1.5-0.5
						c-2.7-7.3-5.8-14.5-9.6-21.4c-2.8-5-5.9-9.7-9.4-14.2c-4.4-5.6-9.3-10.5-15-14.8c-3.3-2.5-6.8-4.7-10.5-6.6
						c-7-3.7-14.4-6.3-22.1-7.8c-4.7-1-9.5-1.8-14.4-1.9c-0.4,0-0.9,0.1-1-0.4c-0.1-0.5,0.4-0.6,0.8-0.7c6.9-3.3,14.1-5.6,21.6-7
						c6.4-1.2,12.8-1.4,19.3-1.4c0.7,0,1.3,0,1.5,0.9c0.1,0.5,0.5,0.5,0.9,0.7c4.7,1.6,9.4,3.5,13.8,5.8c5.8,3,11.3,6.5,16.4,10.6
						c3.1,2.4,5.9,5.1,8.7,7.9c2.5,2.6,4.8,5.3,7,8.2c3.7,4.9,7,10.1,10,15.6c1.3,2.4,2.5,4.9,3.8,7.3
						C305.5,58.8,305.6,59.1,305.7,59.4z"/>
					<path class="st0" d="M298.7,153.9c0.1,0.2,0,0.4-0.2,0.5c-3.8,3.3-7.7,6.3-12,9c-4.9,3.1-10.2,5.7-15.6,7.7
						c-4.6,1.7-9.3,3-14.1,4c-4.2,0.8-8.4,1.3-12.7,1.5c-1,0-1.6-0.3-2.1-1.1c-1.8-3-3.7-5.9-5.3-9c-0.1-0.2-0.3-0.5-0.2-0.8
						c0.2-0.3,0.5-0.2,0.7-0.2c4.4,0.3,8.9,0.4,13.4,0.3c8.8-0.2,17.4-1.4,25.9-3.7c6.4-1.7,12.6-4,18.6-6.8
						c1.1-0.5,2.2-1.2,3.4-1.6C298.6,153.8,298.7,153.9,298.7,153.9z"/>
					<path class="st0" d="M267.6,6.1c2.1,0.4,4,1.2,5.9,2c2.6,1.1,5.1,2.3,7.6,3.6c4.3,2.3,8.3,4.8,12.1,7.8
						c5,3.8,9.5,8.1,13.5,12.8c2.7,3.1,5.1,6.4,7.3,9.9c0.3,0.4,0.3,0.8,0.1,1.2c-1.2,3-2.6,5.9-4.1,8.8c-0.4,0.8-0.8,0.5-1.1-0.1
						c-2-3.8-4.1-7.6-6.4-11.3c-3-4.8-6.4-9.4-10.1-13.8c-5.5-6.4-11.7-11.9-18.6-16.7c-1.6-1.1-3.4-2.1-5.1-3.2
						C268.3,6.9,267.8,6.7,267.6,6.1z"/>
					<path class="st0" d="M154,103.3c-0.9-1.1-0.7-2.2-0.8-3.2c-0.9-8.4-0.9-16.7,0.4-25c1.1-6.5,2.9-12.9,5.3-19
						c0.9-2.3,2.1-4.5,3.2-6.8c0.3-0.6,0.7-1,1.4-1.1c3.1-0.1,6.2-0.6,9.2-0.5c0.4,0,0.8-0.2,1.1,0.3c0.2,0.4-0.2,0.7-0.4,0.9
						c-2.3,3.2-4.5,6.5-6.4,9.9c-1.7,3.1-3.3,6.2-4.7,9.4c-2.2,4.9-3.9,10-5.2,15.2c-1.1,4.3-2,8.7-2.4,13.1
						C154.6,98.8,154.3,100.9,154,103.3z"/>
				</g>
				<g>
					<path class="st1" d="M101.1,113c8.5,0.1,17,0.1,25.5,0.2c5.6,0,11.1,0.1,16.7,0.1c-1.6-6.5-2.6-13.3-2.9-20.3
						c-1.3,0-2.5,0-3.8,0c-11.2-0.1-22.3-0.1-33.5-0.1c-14.5-0.1-29.1-0.2-43.6-0.3c-0.6,0-1.2-0.1-1.5,0.6
						c-0.2,0.6,0.2,0.9,0.6,1.3c5,5,9.8,10.1,14.9,15c1.4,1.4,2.9,3.3,5.2,3.2c1.6-0.1,3.1,0.2,4.6,0.2
						C89.2,112.8,95.1,112.9,101.1,113z"/>
					<path class="st1" d="M103.6,84.2c6.3,0.1,12.7,0.2,19,0.2c5.9,0,11.8,0,17.7,0c0.3-6.9,1.3-13.6,3-20.1c-2.2,0-4.3,0.1-6.5,0.1
						c-10.3-0.1-20.6-0.3-31-0.3c-9.7,0-19.4-0.2-29.1-0.2c-7.6,0-15.2-0.3-22.8-0.2c-4.9,0-9.8,0-14.7,0c-2.7,0-5.5-0.1-8.2,0
						c-0.7,0-1.6-0.2-1.9,0.6c-0.4,0.8,0.4,1.3,1,1.6c0.7,0.4,0.9,1.1,1.4,1.7c2.6,2.4,5.1,4.9,7.5,7.4c2.6,2.7,5.3,5.3,7.9,7.9
						c0.9,0.8,1.8,1.1,2.9,1.1c7.7,0,15.4-0.1,23.1-0.1C83.3,84,93.5,84.2,103.6,84.2z"/>
					<path class="st1" d="M145.8,121.9c-5.1-0.1-10.1-0.2-15.2-0.2c-7.1-0.1-14.3-0.1-21.4-0.2c-7.1,0-14.1,0-21.2,0
						c-0.4,0-0.9-0.1-1.2,0.5c-0.3,0.6,0.1,1,0.4,1.4c2.3,2.4,4.7,4.8,7.1,7.2c3.2,3.2,6.3,6.4,9.7,9.3c1.4,1.2,2.6,1.8,4.3,1.8
						c1.8,0,3.6,0,5.3,0c0,0,0,0,0,0c4.1,0,8.1,0,12.2,0c3.9,0,7.8,0.1,11.6,0.1c4.3,0,8.7,0,13,0.2c1.6,0,3.3,0,4.9,0
						C151.5,135.7,148.3,129,145.8,121.9z"/>
					<path class="st1" d="M42.1,55.5c9.9,0.1,19.7,0.1,29.6,0.1c5.8,0,11.6,0.2,17.3,0.1c5.8-0.2,11.7,0,17.5,0
						c7.1,0,14.2,0.3,21.4,0.2c6-0.1,12,0.2,18,0.2c2.5-7.1,5.8-13.9,9.8-20.2c-5.7,0-11.4,0-17.1,0c-8.4,0-16.7,0.1-25.1,0.1
						c-8.7-0.1-17.4-0.4-26.1-0.4c-14.8-0.1-29.6-0.1-44.4-0.1c-14,0-28.1,0-42.3,0c0.1,0.8,0.4,1.6,1,2.1c3.6,3,6.6,6.5,9.8,9.7
						c2.1,2.1,4.1,4.2,6.1,6.3c0.9,0.9,1.7,1.6,2.7,1.7c1.8,0.2,3.5,0.4,5.3,0.1c1.9-0.3,3.9-0.2,5.8,0C35,55.5,38.6,55.4,42.1,55.5
						z"/>
					<path class="st1" d="M479.2,37.6c-0.2-0.6-0.9-0.4-1.3-0.5c-5.1-0.3-10.3-0.1-15.4-0.1c-8.8,0-17.7-0.1-26.5,0
						c-6.2,0.1-12.5-0.1-18.7-0.1c-9.1,0-18.2,0-27.3-0.1c-6.2,0-12.4-0.1-18.6-0.1c-8,0-15.9,0-23.9-0.1c-6.7,0-13.4-0.1-20.1-0.2
						c-0.9,0-1.7,0-2.6,0c3.9,6.3,7.1,13,9.6,20.1c0.5,0,1,0,1.4,0c10.9,0.4,21.9,0,32.8,0.2c9.1,0.1,18.2-0.3,27.2,0
						c6.3,0.2,12.7,0.1,19,0.2c6.4,0.1,12.8,0.2,19.2-0.1c6.1-0.3,12.2-0.1,18.4-0.1c0,0.1,0,0.1,0,0.2c2.1,0,4.2,0,6.3,0
						c1.3,0,2.3-0.2,3.1-1.4c2-2.6,4.6-4.7,7-6.9c3.4-3.1,6.5-6.6,9.9-9.8C479,38.6,479.4,38.2,479.2,37.6z"/>
					<path class="st1" d="M448.5,65.7c-5.5,0-11,0-16.4,0c-7.6,0-15.2,0-22.8,0c-6.7,0-13.4-0.3-20.1-0.3c-9.8,0.1-19.5,0-29.3,0
						c0,0,0-0.1,0-0.1c-2.6,0-5.1,0-7.7,0c-5.1,0-10.3,0-15.4,0c1.6,6.5,2.5,13.1,2.8,20c6.6,0,13.2,0.2,19.8,0.1
						c5-0.1,10.1,0.2,15.1,0.1c6.8-0.1,13.6,0,20.3-0.1c7.6-0.1,15.1,0,22.7,0.1c3.2,0.1,6.3-0.2,9.5,0.1c2,0.2,4.2,0.3,5.9-1.5
						c1.4-1.4,3-2.7,4.4-4.1c4-4.1,8.1-8,12.1-12.1c0.5-0.5,1.3-1.2,0.9-1.9C450.2,65.5,449.2,65.7,448.5,65.7z"/>
					<path class="st1" d="M391.6,122.8c-5.9,0-11.9,0-17.8,0c-8.7,0-17.4,0-26.1,0c-4.6,0-9.3,0-13.9,0c-2.5,7-5.8,13.7-9.8,19.9
						c2.9,0,5.9,0.1,8.8,0.1c4,0,7.9-0.1,11.9-0.1c5.3,0,10.6,0.2,15.9,0.1c3.8,0,7.6,0.1,11.5,0c1.5-0.1,2.5-0.4,3.5-1.4
						c2.4-2.4,4.8-4.8,7.3-7.2c3.1-3,5.8-6.3,9.1-9c0.5-0.4,1-1.1,0.8-1.8C392.7,122.7,392.1,122.8,391.6,122.8z"/>
					<path class="st1" d="M420.1,94.3c-4.4-0.1-8.8-0.2-13.2-0.1c-7.6,0.2-15.1-0.3-22.7,0c-6,0.2-12.1-0.1-18.1-0.2
						c-7,0-13.9,0-20.9,0c-1.9,0-3.7,0-5.6-0.1c-0.3,6.9-1.4,13.6-3,20.1c1.4,0.1,2.8,0.1,4.3-0.1c4.4-0.6,8.9,0.3,13.3,0.2
						c5.9-0.1,11.9,0.1,17.8,0.1c3.8,0,7.6-0.4,11.4-0.1c5.6,0.4,11.3-0.6,16.9,0.3c2.2,0.3,3.9-0.9,5.1-2.4c0.5-0.6,1-1.4,1.6-1.9
						c4.8-4.3,9-9.3,13.8-13.6c0.5-0.4,1.1-0.9,0.9-1.6C421.5,94.2,420.8,94.4,420.1,94.3z"/>
				</g>
			</g>
		</g>
		<g>
			<path class="st1" d="M1.4,316.9v-91.6h62.8v15.5H19.9v21.7h38.2V278H19.9v38.9H1.4z"/>
			<path class="st1" d="M79.9,316.9v-90.8h18.5v75.4h46v15.4H79.9z"/>
			<path class="st1" d="M169.9,316.9v-38.5l-33.5-53H158l21.5,36.2l21.1-36.2h21.3l-33.7,53.2v38.4H169.9z"/>
			<path class="st1" d="M231.1,316.9v-91.6H299v15.5h-49.4v20.3h46v15.4h-46v24.9h51.2v15.4H231.1z"/>
			<path class="st1" d="M316.5,316.9v-91.6h38.9c9.8,0,16.9,0.8,21.3,2.5c4.4,1.6,8,4.6,10.6,8.8s4,9,4,14.4c0,6.9-2,12.5-6.1,17
				c-4,4.5-10.1,7.3-18.1,8.5c4,2.3,7.3,4.9,9.9,7.7c2.6,2.8,6.1,7.7,10.5,14.9l11.2,17.9h-22.1L363.4,297c-4.7-7.1-8-11.6-9.7-13.5
				c-1.7-1.9-3.6-3.1-5.6-3.8c-2-0.7-5.1-1-9.3-1H335v38.2H316.5z M335,264.1h13.7c8.9,0,14.4-0.4,16.6-1.1c2.2-0.7,3.9-2,5.2-3.9
				c1.2-1.8,1.9-4.1,1.9-6.9c0-3.1-0.8-5.6-2.5-7.5c-1.6-1.9-4-3.1-7-3.6c-1.5-0.2-6-0.3-13.5-0.3H335V264.1z"/>
			<path class="st1" d="M404.1,287.2l18-1.7c1.1,6,3.3,10.5,6.6,13.3c3.3,2.8,7.8,4.2,13.4,4.2c6,0,10.4-1.3,13.5-3.8
				c3-2.5,4.5-5.5,4.5-8.8c0-2.2-0.6-4-1.9-5.5c-1.3-1.5-3.5-2.8-6.7-4c-2.2-0.7-7.1-2.1-14.8-4c-9.9-2.5-16.9-5.5-20.9-9.1
				c-5.6-5-8.4-11.2-8.4-18.4c0-4.7,1.3-9,4-13.1s6.5-7.2,11.4-9.3c5-2.1,11-3.2,18-3.2c11.5,0,20.1,2.5,26,7.6
				c5.8,5,8.9,11.8,9.2,20.2l-18.5,0.8c-0.8-4.7-2.5-8.1-5.1-10.2c-2.6-2.1-6.5-3.1-11.7-3.1c-5.4,0-9.6,1.1-12.6,3.3
				c-2,1.4-2.9,3.3-2.9,5.7c0,2.2,0.9,4,2.7,5.6c2.3,2,8,4,17,6.1c9,2.1,15.6,4.3,20,6.6c4.3,2.3,7.7,5.4,10.1,9.3
				c2.4,3.9,3.7,8.8,3.7,14.6c0,5.2-1.5,10.2-4.4,14.7c-2.9,4.6-7,8-12.4,10.2c-5.3,2.2-12,3.3-19.9,3.3c-11.6,0-20.5-2.7-26.7-8
				C409.1,305.2,405.4,297.4,404.1,287.2z"/>
		</g>
	</g>
	<g>
		<g>
			<path class="st0" d="M17.2,397.5L1,347.8h6.9l7.7,24.5c2.1,6.7,4,12.8,5.3,18.6h0.1c1.4-5.8,3.5-12,5.7-18.5l8.4-24.6h6.9
				l-17.8,49.7H17.2z"/>
			<path class="st0" d="M98.8,372.1c0,17.1-10.4,26.2-23.1,26.2c-13.1,0-22.4-10.2-22.4-25.2c0-15.8,9.8-26.1,23.1-26.1
				C90,347,98.8,357.4,98.8,372.1z M60.2,373c0,10.6,5.8,20.1,15.9,20.1c10.2,0,15.9-9.4,15.9-20.7c0-9.9-5.2-20.2-15.9-20.2
				C65.5,352.2,60.2,362,60.2,373z"/>
			<path class="st0" d="M116,347.8h6.4v44.3h21.2v5.4H116V347.8z"/>
			<path class="st0" d="M159.7,347.8h6.4v44.3h21.2v5.4h-27.7V347.8z"/>
			<path class="st0" d="M229.1,374.2h-19.3v17.9h21.5v5.4h-28v-49.7h26.9v5.4h-20.4v15.7h19.3V374.2z"/>
			<path class="st0" d="M259.8,397.5v-21.1l-15.7-28.6h7.3l7,13.7c1.9,3.8,3.4,6.8,4.9,10.3h0.1c1.4-3.2,3.1-6.5,5-10.3l7.2-13.7
				h7.3l-16.7,28.6v21.2H259.8z"/>
			<path class="st0" d="M296.9,348.5c2.8-0.6,7.2-1,11.7-1c6.4,0,10.5,1.1,13.6,3.6c2.6,1.9,4.1,4.9,4.1,8.8c0,4.8-3.2,9-8.4,10.9
				v0.1c4.7,1.2,10.3,5.1,10.3,12.5c0,4.3-1.7,7.5-4.2,10c-3.5,3.2-9.1,4.6-17.2,4.6c-4.4,0-7.8-0.3-10-0.6V348.5z M303.4,368.8h5.8
				c6.8,0,10.8-3.5,10.8-8.3c0-5.8-4.4-8.1-10.9-8.1c-3,0-4.6,0.2-5.7,0.4V368.8z M303.4,392.7c1.3,0.2,3.1,0.3,5.4,0.3
				c6.6,0,12.8-2.4,12.8-9.7c0-6.8-5.8-9.6-12.8-9.6h-5.3V392.7z"/>
			<path class="st0" d="M353.8,381.9l-5.2,15.6H342l16.9-49.7h7.7l17,49.7h-6.9l-5.3-15.6H353.8z M370.1,376.9l-4.9-14.3
				c-1.1-3.2-1.8-6.2-2.6-9.1h-0.1c-0.7,3-1.5,6-2.5,9l-4.9,14.4H370.1z"/>
			<path class="st0" d="M399.8,347.8h6.4v44.3h21.2v5.4h-27.7V347.8z"/>
			<path class="st0" d="M443.5,347.8h6.4v44.3h21.2v5.4h-27.7V347.8z"/>
		</g>
	</g>
</g>
</svg>
